<svg class="svg-logo" xmlns="http://www.w3.org/2000/svg" xmlns:xlink="http://www.w3.org/1999/xlink" x="0px" y="0px" viewBox="0 0 202.5 50" style="enable-background:new 0 0 202.5 50;" xml:space="preserve"> <g> <g> <path class="hrvw_svg0" d="M70.5,18c-2.5,0-4.2,0.9-5.4,2.7l-0.7,1.1v-10h-3.2v25.1h3.2V26.3c0-1.5,0.5-2.8,1.3-3.7c0.9-0.9,2.1-1.4,3.6-1.4c3.2,0,4.8,1.8,4.8,5.1v10.4h3.2V25.5c0-2-0.6-3.8-1.9-5.2C74.2,18.7,72.5,18,70.5,18z"></path> <polygon class="hrvw_svg0" points="149.6,29.6 144.8,18 141.2,18 149.6,36.7 158.1,18 154.5,18 		"></polygon> <path class="hrvw_svg0" d="M200.7,20.2c-1.3-1.5-3-2.2-5-2.2c-4.7-0.2-6.1,3-6.1,3v-3h-3.2v18.8h3.2V26.3c0-1.5,0.5-2.8,1.3-3.7c0.9-0.9,2.1-1.4,3.6-1.4c3.2,0,4.8,1.8,4.8,5.1v10.4h3.2V25.5C202.5,23.4,201.9,21.7,200.7,20.2z"></path> <path class="hrvw_svg0" d="M98.7,20.4c-1.8-1.3-3.6-2.1-5.8-2.1c-5,0-9.1,4.1-9.1,9.1c0,5,4.1,9.1,9.1,9.1c2.2,0,4.1-0.8,5.8-2.1v0.5v1.9h3.5v-6.9v0v-4v-0.1v-7.9h-3.5V20.4z M92.9,33.2c-3.2,0-5.8-2.6-5.8-5.8c0-3.2,2.6-5.8,5.8-5.8c3.2,0,5.8,2.6,5.8,5.8C98.6,30.6,96.1,33.2,92.9,33.2z"></path> <path class="hrvw_svg0" d="M134.6,20.4c-1.7-1.3-3.6-2.1-5.8-2.1c-5,0-9.1,4.1-9.1,9.1c0,5,4.1,9.1,9.1,9.1c2.2,0,4.1-0.8,5.8-2.1v0.5v1.9h3.5v-6.9v0v-4v-0.1v-7.9h-3.5V20.4z M128.8,33.2c-3.2,0-5.8-2.6-5.8-5.8c0-3.2,2.6-5.8,5.8-5.8c3.2,0,5.8,2.6,5.8,5.8C134.6,30.6,132,33.2,128.8,33.2z"></path> <path class="hrvw_svg0" d="M176.3,20.4c-1.8-1.3-3.6-2.1-5.8-2.1c-5,0-9.1,4.1-9.1,9.1c0,5,4.1,9.1,9.1,9.1c2.2,0,4-0.8,5.8-2.1v0.5v1.9h3.5v-6.9v0v-4v-0.1v-7.9h-3.5V20.4z M170.6,33.2c-3.2,0-5.8-2.6-5.8-5.8c0-3.2,2.6-5.8,5.8-5.8c3.2,0,5.8,2.6,5.8,5.8C176.4,30.6,173.8,33.2,170.6,33.2z"></path> <path class="hrvw_svg0" d="M111.6,20.1v-2.3h-3.2v19h3.2V24.4c0-0.9,0.5-1.7,1.1-2.3c0.6-0.6,1.7-0.9,2.6-0.9c0.5,0,1,0.1,1.6,0.3V18c0,0-0.7,0-0.9,0C112.8,17.9,111.6,20.1,111.6,20.1z"></path> </g> <g> <path class="hrvw_svg0" d="M22.9,35.3v0.9c0.7-0.3,1.3-0.6,2-1c1-0.5,2.1-1.1,3.2-1.6v-3.5v0H23l0,0h0v0l0,0V35.3L22.9,35.3L22.9,35.3L22.9,35.3z"></path> <path class="hrvw_svg0" d="M2.4,19.6l0,0.1L3,24.1l0.1,0.7l0,0.1l0.5,3.7L3.8,30l0.4,3.2l0.3,2l0.4,2.6l0.3,2.6l0.1,0.9c0.3,0.1,0.7,0.1,1.1,0.1c0.1,0,0.2,0,0.3,0c0.2,0,0.5,0,0.7,0c1.4-0.1,2.9-0.4,4.7-0.9l0-0.1l-0.6-4.1l-0.1-1.1l-0.5-3.4L10.7,30l-0.4-2.8l-0.1-0.8L10,24.9l-0.3-2.2l-0.4-3L9,18.1l-0.1-0.9l-1.5,0.2l-3.1,0.4l-2,0.2l-0.1,0l0.1,0.5L2.4,19.6z"></path> <path class="hrvw_svg0" d="M9.7,14.5l0.3,2.6l0.3,2.6l0.3,2l0.4,3.2l0.2,1.4l0,0.2l0.5,3.5l0.1,0.8l0.6,4.4l0,0.2l0.2,1.2L13,40l0,0.2c1.5-0.5,3.1-1,4.7-1.7v-3.3l0,0h0v-5.1l0,0h0v-5.1l0,0h0v-5.1l0,0h5.1v0v5.1v0l0,0h5.1v-5.1l0,0h5.1v0v5.1v0V30v0v0.7c0,0,0.8-0.5,1.2-0.7c1.3-0.8,2.6-1.5,3.9-2.3c1-0.6,2-1.2,2.9-1.8l-0.1-1.1L41,22.4l0-0.3l-0.3-2.4l-0.2-1.9L40,14.5l-0.2-1.3l-0.5-3.9l-0.1-0.7l-0.3-2l-0.5,0.1L35.7,7l-2.4,0.3l-0.7,0.1c0.2,0.5,0.5,0.9,0.7,1.3c0.1,0.1,0.2,0.3,0.2,0.4c0.1,0,0.1,0,0.2-0.1c0,0,0.1,0,0.1,0c0.3,0,0.6,0.1,0.8,0.4c0.1,0.1,0.1,0.3,0.2,0.4c0.1,0.4-0.2,0.8-0.7,1c-0.3-0.5-0.5-0.9-0.8-1.3c0,0,0,0,0,0c0,0,0,0,0,0c-0.7-1.1-1.4-2.1-2.1-3c-0.6-0.8-1.1-1.5-1.6-2.1c-0.2-0.3-0.4-0.5-0.6-0.8c-0.3-0.3-0.5-0.6-0.8-0.8c-0.7-0.7-1.3-1.2-1.9-1.6c-1.1-0.7-2.1-1-3-0.9c-0.1,0-0.2,0-0.2,0c-1.7,0.3-3,2-4.1,4.1c-0.4,0.8-0.7,1.6-1.1,2.5c-0.2,0.6-0.5,1.2-0.7,1.8c-0.1,0.3-0.2,0.6-0.3,0.9c-0.2,0.6-0.5,1.2-0.7,1.8c-0.3,0.6-0.5,1.2-0.8,1.8c-0.2-0.1-0.4-0.2-0.5-0.4c-0.1-0.1-0.1-0.2-0.1-0.4c0-0.5,0.4-0.8,0.8-0.8c0.1,0,0.1,0,0.2,0c0.2-0.6,0.4-1.2,0.6-2c0,0,0-0.1,0-0.1l-0.8,0.1l-2.9,0.3l-0.3,0l-3.2,0.4l0.3,2.5L9.7,14.5z M22.9,0.8c0.1,0,0.2,0,0.3,0c0.7-0.1,1.6,0.2,2.4,0.7c0.2,0.1,0.5,0.3,0.7,0.5c-0.3-0.1-0.6-0.2-0.9-0.3c-0.8-0.2-1.6-0.2-2.1-0.2c-0.1,0-0.3,0-0.4,0.1c-0.8,0.2-1.6,0.5-2.4,1.1C21.3,1.6,22,1,22.9,0.8z M17.3,9.9c0.1-0.2,0.1-0.4,0.2-0.6c0.1-0.2,0.2-0.4,0.2-0.6c0,0,0-0.1,0.1-0.1c0.4-0.9,0.7-1.9,1.1-2.7c0.3-0.6,0.7-1.2,1.1-1.7c0.8-1,1.9-1.7,3-1.9c0.2,0,0.3-0.1,0.5-0.1c0.5-0.1,1,0,1.5,0.1C26,2.4,27.1,3,28.1,3.9C28.2,3.9,28.2,4,28.3,4c0.1,0,0.1,0.1,0.2,0.1c0.3,0.3,0.7,0.6,1,1c0.4,0.5,0.8,1.1,1.2,1.7C30.9,7,31,7.3,31.2,7.5l-1.4,0.2l-1.7,0.2L24,8.3l-1,0.1L18.1,9L18,9l-0.2,0.3l0,0l-0.1,0.2l-0.5,0.7C17.2,10.1,17.2,10,17.3,9.9z"></path> <path class="hrvw_svg0" d="M41.2,17l0.4,2.7l0.2,1.9l0,0.1l0.4,3.2l0.1,0.5c0.3-0.2,0.6-0.4,0.8-0.5c0.2-0.1,0.3-0.2,0.5-0.3c0.3-0.2,0.6-0.4,0.9-0.6c1.5-0.9,2.9-1.9,4.2-2.7c0.8-0.5,1.6-1.1,2.3-1.5c0.6-0.4,1.1-0.7,1.6-1.1l-0.3-2.5l0-0.3l-0.2-1.3l-0.4-2.8l-0.2,0L48.8,12l-3,0.4l-2.2,0.2l-3,0.3l0.2,1.5L41.2,17z"></path> <polygon class="hrvw_svg0" points="28.2,24.9 28.1,24.9 28.1,24.9 		"></polygon> <polygon class="hrvw_svg0" points="28.1,30.1 28.2,30 28.1,30 		"></polygon> <path class="hrvw_svg0" d="M7.4,47.7c1,0.1,2.1,0,3.3-0.2c0.6-0.1,1.3-0.2,1.9-0.4c1.6-0.4,3.4-0.9,5.2-1.6c0,0,0,0,0,0c0,0,0,0,0,0c1.6-0.6,3.4-1.3,5.1-2.1c1.3-0.6,2.7-1.2,4.1-1.9c0.4-0.2,0.7-0.4,1.1-0.6c0.4-0.2,0.8-0.4,1.2-0.6c1.3-0.7,2.7-1.4,4-2.1c1.7-0.9,3.3-1.9,5-2.8c0.1,0,0.1-0.1,0.2-0.1c0.1,0,0.1-0.1,0.2-0.1c1.7-1,3.4-2,5-3c1.2-0.8,2.4-1.5,3.6-2.2c0.6-0.3,1.1-0.7,1.6-1c1.1-0.7,3-1.9,3-1.9s1.4-0.9,1.9-1.3l-0.1-0.6l0-0.1l0-0.4l-0.4-3.3c-0.9,0.6-1.9,1.2-3,2c-0.4,0.3-0.9,0.6-1.3,0.9c-0.2,0.1-0.4,0.3-0.6,0.4c-1.4,0.9-2.9,1.9-4.5,2.9c-1.2,0.8-2.5,1.5-3.8,2.3c-0.5,0.3-0.9,0.6-1.4,0.8c-0.6,0.4-1.3,0.8-1.9,1.1c-1.1,0.6-2.2,1.2-3.2,1.8c-0.8,0.5-1.6,0.9-2.5,1.4c-0.9,0.5-1.8,1-2.7,1.4c-0.9,0.5-1.9,1-2.8,1.4c-0.8,0.4-1.6,0.8-2.4,1.1c-0.9,0.4-1.8,0.8-2.7,1.2c-0.9,0.4-1.7,0.7-2.5,1c-0.5,0.2-1.1,0.4-1.6,0.6c-1.2,0.4-2.4,0.8-3.6,1.2c-1.2,0.3-2.4,0.6-3.5,0.8C8.5,44,8,44.1,7.4,44.1c-1,0.1-1.9,0-2.7-0.2c-0.2,0-0.5-0.1-0.7-0.2c-0.8-0.3-1.4-0.6-1.8-1.1c-0.4-0.4-0.6-0.9-0.8-1.4c0,0-0.2-0.6-0.3-0.9c-0.3-1.2-0.2-2.7,0.1-4.1c0.1-0.3,0.1-0.7,0.2-1c0.2-0.9,0.5-1.8,0.8-2.7c0.2-0.6,0.4-1.2,0.6-1.7c-0.2,0.4-0.4,0.8-0.6,1.3c-0.4,1-0.9,2-1.2,3.1h0c-0.2,0.6-0.4,1.2-0.5,1.8C0.2,38.1,0,39.3,0,40.4c0,0.7,0,1.4,0.2,2c0,0,0,0.1,0,0.1c0.3,1.1,0.8,2.2,1.7,3C2,45.6,2,45.7,2.1,45.8c0.1,0,0.1,0.1,0.2,0.1c0.8,0.7,1.9,1.2,3.3,1.6c0.2,0.1,0.4,0.1,0.7,0.1C6.6,47.7,7,47.7,7.4,47.7z"></path> <path class="hrvw_svg0" d="M54.5,30l0-0.4l-0.3-2.4c0,0-0.1,0.1-0.1,0.1c-1.3,0.8-2.7,1.8-4.2,2.7c-0.3,0.2-0.6,0.4-0.9,0.6c-0.5,0.3-1,0.6-1.5,0.9c-1.2,0.7-2.4,1.5-3.7,2.3c-0.8,0.5-1.5,0.9-2.3,1.4c-0.9,0.6-1.9,1.1-2.9,1.7c-1.2,0.7-2.5,1.4-3.7,2.1c-0.5,0.3-1,0.5-1.5,0.8c-0.4,0.2-0.8,0.4-1.2,0.6c-1.3,0.7-2.7,1.4-4,2c-1.3,0.6-2.5,1.2-3.7,1.8c-0.5,0.2-1,0.4-1.4,0.6c-0.6,0.3-1.2,0.5-1.8,0.8c-1.1,0.5-2.3,0.9-3.3,1.3c-0.6,0.2-1.2,0.4-1.8,0.6c-1.2,0.4-2.3,0.7-3.4,0.9c-1.1,0.2-2.2,0.4-3.2,0.5c-0.5,0-0.9,0.1-1.3,0.1c-0.2,0-0.5,0-0.7,0c-0.6,0-1.2-0.1-1.7-0.2c0,0,0,0,0,0c0.5,0.3,1.1,0.6,1.7,0.8c0,0,0,0,0,0c0.3,0.1,0.7,0.2,1,0.3c1.2,0.3,2.6,0.3,4.1,0.2c0.3,0,0.6,0,0.9-0.1c1.3-0.2,2.8-0.4,4.2-0.8c0.8-0.2,1.6-0.4,2.5-0.7c0.9-0.3,1.8-0.6,2.7-0.9c1.5-0.5,3-1.2,4.6-1.8c0.2-0.1,0.4-0.2,0.6-0.3c0.2-0.1,0.4-0.2,0.6-0.2c1.5-0.7,3.1-1.4,4.6-2.2c1.6-0.8,3.2-1.6,4.8-2.5c0.1-0.1,0.2-0.1,0.4-0.2c0.2-0.1,0.3-0.2,0.5-0.3c1.6-0.9,3.2-1.8,4.7-2.6c1.2-0.7,2.4-1.4,3.5-2.1c0.6-0.3,1.1-0.7,1.6-1c1-0.6,1.9-1.2,2.8-1.7c0.9-0.5,1.6-1,2.3-1.5v0l0.1,0v0c0,0,0,0,0,0l0,0v0c0.2-0.1,0.3-0.2,0.5-0.3L54.5,30z"></path> </g> </g> </svg>